<svg width="842" height="129" fill="none" xmlns="http://www.w3.org/2000/svg"><path opacity=".22" d="M.542 129l54.423-75.034V75.3L2.893 2.436H36.16l35.98 50.807-13.922.18L93.657 2.436h31.822l-51.71 71.6V53.061L128.552 129h-33.81L57.496 75.3h13.38L34.172 129H.542zm255.31 2.17c-9.763 0-18.864-1.567-27.302-4.701-8.317-3.255-15.549-7.835-21.696-13.741-6.148-5.907-10.969-12.838-14.465-20.793-3.375-7.956-5.062-16.694-5.062-26.217 0-9.522 1.687-18.261 5.062-26.217 3.496-7.955 8.317-14.886 14.465-20.792 6.268-5.906 13.56-10.427 21.877-13.56 8.317-3.255 17.418-4.882 27.302-4.882 10.969 0 20.853 1.928 29.652 5.785 8.92 3.737 16.393 9.282 22.42 16.635l-18.804 17.357c-4.339-4.942-9.161-8.618-14.464-11.03-5.304-2.53-11.09-3.796-17.358-3.796-5.906 0-11.33.964-16.272 2.893-4.942 1.928-9.221 4.7-12.837 8.317-3.616 3.616-6.449 7.895-8.498 12.837-1.929 4.942-2.893 10.426-2.893 16.453 0 6.027.964 11.511 2.893 16.453 2.049 4.942 4.882 9.221 8.498 12.838 3.616 3.616 7.895 6.388 12.837 8.317 4.942 1.928 10.366 2.893 16.272 2.893 6.268 0 12.054-1.206 17.358-3.617 5.303-2.531 10.125-6.328 14.464-11.39l18.804 17.357c-6.027 7.353-13.5 12.958-22.42 16.815-8.799 3.857-18.744 5.786-29.833 5.786zm53.103-2.17L365.366 2.436h28.929L450.887 129H420.15L373.864 17.262h11.572L338.969 129h-30.014zm28.206-27.121l7.774-22.239h65.09l7.956 22.239h-80.82zM464.018 129V2.436h54.784c11.331 0 21.094 1.869 29.29 5.605 8.197 3.616 14.525 8.86 18.985 15.73 4.46 6.871 6.69 15.068 6.69 24.59 0 9.402-2.23 17.538-6.69 24.409-4.46 6.75-10.788 11.933-18.985 15.549-8.196 3.616-17.959 5.424-29.29 5.424h-38.511l13.018-12.837V129h-29.291zm80.458 0l-31.641-45.924h31.28L576.117 129h-31.641zm-51.167-44.84l-13.018-13.74h36.884c9.04 0 15.79-1.93 20.25-5.787 4.46-3.977 6.69-9.401 6.69-16.272 0-6.991-2.23-12.415-6.69-16.273-4.46-3.857-11.21-5.785-20.25-5.785h-36.884l13.018-13.922v71.78zM596.973 129V2.436h57.496c13.742 0 25.856 2.652 36.342 7.956 10.487 5.183 18.684 12.475 24.59 21.877 5.906 9.402 8.859 20.552 8.859 33.45 0 12.776-2.953 23.926-8.859 33.448-5.906 9.402-14.103 16.755-24.59 22.058-10.486 5.183-22.6 7.775-36.342 7.775h-57.496zm29.291-24.047h26.759c8.438 0 15.73-1.567 21.877-4.701 6.268-3.254 11.09-7.835 14.465-13.741 3.495-5.906 5.243-12.837 5.243-20.793 0-8.076-1.748-15.007-5.243-20.792-3.375-5.907-8.197-10.427-14.465-13.56-6.147-3.255-13.439-4.883-21.877-4.883h-26.759v78.47zm161.671 26.217c-10.125 0-19.829-1.326-29.11-3.978-9.281-2.772-16.754-6.328-22.42-10.668l9.945-22.058c5.424 3.857 11.812 7.052 19.165 9.583 7.473 2.411 15.007 3.616 22.601 3.616 5.785 0 10.426-.542 13.922-1.627 3.616-1.206 6.268-2.833 7.955-4.882 1.688-2.05 2.531-4.4 2.531-7.051 0-3.375-1.326-6.027-3.977-7.956-2.652-2.049-6.148-3.676-10.487-4.882-4.339-1.325-9.161-2.53-14.465-3.616a205.191 205.191 0 01-15.73-4.339c-5.183-1.688-9.944-3.857-14.283-6.509-4.34-2.652-7.895-6.147-10.668-10.487-2.652-4.339-3.977-9.884-3.977-16.634 0-7.232 1.928-13.801 5.785-19.708 3.978-6.026 9.884-10.788 17.719-14.283 7.956-3.616 17.9-5.424 29.833-5.424 7.956 0 15.79.964 23.505 2.893 7.714 1.808 14.524 4.58 20.431 8.317l-9.04 22.239c-5.907-3.375-11.813-5.846-17.719-7.413-5.907-1.688-11.692-2.532-17.358-2.532-5.665 0-10.306.663-13.922 1.99-3.616 1.325-6.207 3.073-7.774 5.243-1.567 2.049-2.351 4.46-2.351 7.232 0 3.254 1.326 5.906 3.978 7.955 2.652 1.929 6.147 3.496 10.487 4.701 4.339 1.205 9.1 2.41 14.283 3.616a231.913 231.913 0 0115.73 4.159c5.304 1.567 10.125 3.676 14.465 6.328a31.16 31.16 0 0110.486 10.487c2.773 4.339 4.159 9.823 4.159 16.453 0 7.112-1.989 13.621-5.967 19.527-3.977 5.906-9.944 10.667-17.899 14.284-7.835 3.616-17.78 5.424-29.833 5.424z" fill="url(#paint0_linear_2076_797)"/><defs><linearGradient id="paint0_linear_2076_797" x1="423.5" y1="168" x2="423.5" y2="-40" gradientUnits="userSpaceOnUse"><stop stop-color="#fff" stop-opacity=".45"/><stop offset="1" stop-color="#999" stop-opacity=".22"/></linearGradient></defs></svg>