<svg width="143" height="38" fill="none" xmlns="http://www.w3.org/2000/svg"><circle cx="19" cy="19" r="19" fill="#fff"/><path d="M9 12l8 7-8 7" stroke="#15C26E" stroke-width="2" stroke-linecap="round"/><path d="M29 12l-8 7 8 7" stroke="#FE3131" stroke-width="2" stroke-linecap="round"/><path d="M64.032 28.288c-1.296 0-2.504-.208-3.624-.624a8.664 8.664 0 01-2.88-1.824 8.564 8.564 0 01-1.92-2.76c-.448-1.056-.672-2.216-.672-3.48 0-1.264.224-2.424.672-3.48a8.564 8.564 0 011.92-2.76 8.616 8.616 0 012.904-1.8c1.104-.432 2.312-.648 3.624-.648 1.456 0 2.768.256 3.936.768a7.566 7.566 0 012.976 2.208l-2.496 2.304c-.576-.656-1.216-1.144-1.92-1.464a5.28 5.28 0 00-2.304-.504c-.784 0-1.504.128-2.16.384a4.897 4.897 0 00-1.704 1.104 5.194 5.194 0 00-1.128 1.704c-.256.656-.384 1.384-.384 2.184 0 .8.128 1.528.384 2.184a5.194 5.194 0 001.128 1.704c.48.48 1.048.848 1.704 1.104a5.893 5.893 0 002.16.384c.832 0 1.6-.16 2.304-.48.704-.336 1.344-.84 1.92-1.512l2.496 2.304a7.78 7.78 0 01-2.976 2.232c-1.168.512-2.488.768-3.96.768zM71.081 28l7.488-16.8h3.84L89.92 28h-4.08l-6.144-14.832h1.536L75.065 28H71.08zm3.744-3.6l1.032-2.952h8.64l1.056 2.952H74.825zM91.664 28V11.2h7.272c1.504 0 2.8.248 3.888.744 1.088.48 1.928 1.176 2.52 2.088.592.912.888 2 .888 3.264 0 1.248-.296 2.328-.888 3.24-.592.896-1.432 1.584-2.52 2.064s-2.384.72-3.888.72h-5.112l1.728-1.704V28h-3.888zm10.68 0l-4.2-6.096h4.152L106.544 28h-4.2zm-6.792-5.952l-1.728-1.824h4.896c1.2 0 2.096-.256 2.688-.768.592-.528.888-1.248.888-2.16 0-.928-.296-1.648-.888-2.16-.592-.512-1.488-.768-2.688-.768h-4.896l1.728-1.848v9.528zM109.312 28V11.2h7.632c1.824 0 3.432.352 4.824 1.056 1.392.688 2.48 1.656 3.264 2.904.784 1.248 1.176 2.728 1.176 4.44 0 1.696-.392 3.176-1.176 4.44-.784 1.248-1.872 2.224-3.264 2.928-1.392.688-3 1.032-4.824 1.032h-7.632zm3.888-3.192h3.552c1.12 0 2.088-.208 2.904-.624a4.596 4.596 0 001.92-1.824c.464-.784.696-1.704.696-2.76 0-1.072-.232-1.992-.696-2.76a4.446 4.446 0 00-1.92-1.8c-.816-.432-1.784-.648-2.904-.648H113.2v10.416zm21.46 3.48c-1.344 0-2.632-.176-3.864-.528-1.232-.368-2.224-.84-2.976-1.416l1.32-2.928c.72.512 1.568.936 2.544 1.272.992.32 1.992.48 3 .48.768 0 1.384-.072 1.848-.216.48-.16.832-.376 1.056-.648a1.43 1.43 0 00.336-.936c0-.448-.176-.8-.528-1.056-.352-.272-.816-.488-1.392-.648a20.999 20.999 0 00-1.92-.48 27.233 27.233 0 01-2.088-.576 8.91 8.91 0 01-1.896-.864 4.358 4.358 0 01-1.416-1.392c-.352-.576-.528-1.312-.528-2.208 0-.96.256-1.832.768-2.616.528-.8 1.312-1.432 2.352-1.896 1.056-.48 2.376-.72 3.96-.72 1.056 0 2.096.128 3.12.384 1.024.24 1.928.608 2.712 1.104l-1.2 2.952a9.82 9.82 0 00-2.352-.984 8.363 8.363 0 00-2.304-.336c-.752 0-1.368.088-1.848.264-.48.176-.824.408-1.032.696a1.535 1.535 0 00-.312.96c0 .432.176.784.528 1.056.352.256.816.464 1.392.624.576.16 1.208.32 1.896.48.704.16 1.4.344 2.088.552a8.02 8.02 0 011.92.84c.576.352 1.04.816 1.392 1.392.368.576.552 1.304.552 2.184 0 .944-.264 1.808-.792 2.592s-1.32 1.416-2.376 1.896c-1.04.48-2.36.72-3.96.72z" fill="#fff"/></svg>