<svg width="38" height="41" fill="none" xmlns="http://www.w3.org/2000/svg"><path d="M0 0h37.31v28.993a3.731 3.731 0 01-2.116 3.363L20.27 39.52a3.732 3.732 0 01-3.23 0L2.117 32.356A3.731 3.731 0 010 28.993V0z" fill="#03045E"/><g clip-path="url(#clip0_514_2418)"><path fill-rule="evenodd" clip-rule="evenodd" d="M19.498 11.378c.432-.518 1.274-.164 1.206.508l-.483 4.718h3.906a.684.684 0 01.525 1.122l-6.84 8.208c-.432.518-1.274.164-1.206-.508l.483-4.718h-3.906a.683.683 0 01-.525-1.122l6.84-8.208z" fill="#3ED05E"/></g><defs><clipPath id="clip0_514_2418"><path fill="#fff" transform="translate(10.447 10.447)" d="M0 0h16.416v16.416H0z"/></clipPath></defs></svg>