<svg width="103" height="52" fill="none" xmlns="http://www.w3.org/2000/svg"><path d="M72.2 2c-11.363.273-22.794.491-34.105 1.412a61.29 61.29 0 00-14.712 3.043C16.217 8.872 9.436 11.503 5.309 16.87 2.68 20.288 1.979 23.979 2 27.893c.027 4.848 1.53 8.98 5.797 12.622C17.602 48.883 35.056 49.97 48.665 50c7.704.016 15.226-.423 22.674-2.03 5.71-1.231 10.901-3.58 15.76-6.159 5.132-2.722 13.575-6.466 13.893-12.026.23-4.04-4.337-7.336-7.894-9.85-3.403-2.406-7.71-4.448-11.915-5.888-14.527-4.973-29.962-5.27-45.536-5.27" stroke="#0BAE5F" stroke-width="3" stroke-linecap="round"/></svg>