<svg width="162" height="40" fill="none" xmlns="http://www.w3.org/2000/svg"><path d="M53.08 34.32c-2.347 0-4.453-.507-6.32-1.52s-3.333-2.4-4.4-4.16c-1.067-1.787-1.6-3.787-1.6-6 0-2.267.533-4.267 1.6-6 1.067-1.76 2.533-3.147 4.4-4.16 1.867-1.013 3.973-1.52 6.32-1.52 1.947 0 3.667.293 5.16.88a9.596 9.596 0 013.8 2.68l-2.48 2.52c-.853-.933-1.813-1.613-2.88-2.04-1.067-.453-2.227-.68-3.48-.68-1.627 0-3.093.36-4.4 1.08a7.804 7.804 0 00-3.04 2.92c-.72 1.253-1.08 2.693-1.08 4.32 0 1.573.36 3 1.08 4.28a8.099 8.099 0 003.04 2.96c1.307.72 2.773 1.08 4.4 1.08 1.253 0 2.413-.227 3.48-.68 1.067-.453 2.027-1.147 2.88-2.08l2.48 2.52a9.899 9.899 0 01-3.84 2.72c-1.493.587-3.2.88-5.12.88zm9.59-.32l10.4-22.72h3.84L87.35 34h-3.92l-9.08-20.68h1.32L66.47 34h-3.8zm4.76-5.4l1.04-3.08h12.48l1.04 3.08H67.43zM91.2 34V11.28h9.28c2 0 3.72.32 5.16.96 1.44.613 2.56 1.52 3.36 2.72.8 1.173 1.2 2.613 1.2 4.32 0 1.653-.4 3.08-1.2 4.28-.8 1.2-1.92 2.12-3.36 2.76-1.44.613-3.16.92-5.16.92h-7.12l1.72-1.76V34H91.2zm15.2 0l-5.92-8.24h4.2L110.6 34h-4.2zm-11.32-8.08l-1.48-1.84h6.64c1.974 0 3.467-.413 4.48-1.24 1.04-.827 1.56-2.013 1.56-3.56 0-1.547-.52-2.733-1.56-3.56-1.013-.827-2.506-1.24-4.48-1.24H93.6l1.48-1.84v13.28zM116.396 34V11.28h9.88c2.56 0 4.773.467 6.64 1.4 1.893.933 3.346 2.253 4.36 3.96 1.04 1.707 1.56 3.707 1.56 6s-.52 4.293-1.56 6c-1.014 1.707-2.467 3.027-4.36 3.96-1.867.933-4.08 1.4-6.64 1.4h-9.88zm3.88-3.24h5.84c1.866 0 3.453-.32 4.76-.96 1.306-.667 2.306-1.613 3-2.84.693-1.227 1.04-2.667 1.04-4.32 0-1.68-.347-3.12-1.04-4.32-.694-1.227-1.694-2.173-3-2.84-1.307-.667-2.894-1-4.76-1h-5.84v16.28zm40.086-3.24c0 1.387-.374 2.587-1.12 3.6-.72 1.013-1.774 1.8-3.16 2.36-1.36.56-3.014.84-4.96.84-1.76 0-3.48-.24-5.16-.72-1.654-.507-2.947-1.173-3.88-2l1.52-3.04c.906.72 2.04 1.32 3.4 1.8 1.36.453 2.786.68 4.28.68 1.92 0 3.266-.307 4.04-.92.773-.64 1.16-1.387 1.16-2.24 0-.747-.254-1.333-.76-1.76-.48-.453-1.134-.8-1.96-1.04a28.566 28.566 0 00-2.72-.72 66.087 66.087 0 01-2.92-.72 12.51 12.51 0 01-2.68-1.08 5.626 5.626 0 01-1.96-1.84c-.507-.8-.76-1.8-.76-3 0-1.36.373-2.547 1.12-3.56.746-1.013 1.8-1.8 3.16-2.36 1.36-.56 2.986-.84 4.88-.84 1.386 0 2.76.16 4.12.48 1.36.293 2.533.787 3.52 1.48l-1.4 3.12c-.96-.667-2-1.133-3.12-1.4a13.644 13.644 0 00-3.24-.4c-1.814 0-3.134.32-3.96.96-.8.613-1.2 1.373-1.2 2.28 0 .747.253 1.347.76 1.8.506.427 1.16.773 1.96 1.04.826.24 1.733.467 2.72.68.986.213 1.96.453 2.92.72.96.267 1.853.627 2.68 1.08a5.212 5.212 0 011.96 1.84c.506.747.76 1.707.76 2.88z" fill="#fff"/><circle cx="16" cy="21" r="16" fill="#fff"/><path d="M7.579 15.105L14.316 21l-6.737 5.895" stroke="#15C26E" stroke-width="1.684" stroke-linecap="round"/><path d="M24.421 15.105L17.684 21l6.737 5.895" stroke="#FE3131" stroke-width="1.684" stroke-linecap="round"/></svg>